<svg width="675" height="479" viewBox="0 0 675 479" fill="none" xmlns="http://www.w3.org/2000/svg">
<path d="M63.9479 477.105C87.8908 477.105 622.228 477.105 622.228 477.105C673.033 437.538 670.089 368.131 673.033 336.51C680.041 218.547 654.93 163.325 603.54 140.879C501.929 96.497 622.17 -18.2377 314.473 2.4771C286.272 4.37547 191.395 19.9934 168.479 29.9237C152.407 36.8831 92.8104 60.1707 75.0434 112.848C69.4318 129.474 63.9478 164.238 63.9478 189.349C63.9478 243.074 33.6146 233.731 9.63822 292.712C-19.5605 364.541 23.11 444.673 63.9479 477.105Z" fill="#505673"/>
<path d="M452.444 477.153H452.551C453.186 477.153 453.696 476.631 453.681 475.997L451.968 401.718L446.92 401.129L451.224 476.002C451.262 476.648 451.796 477.153 452.444 477.153Z" fill="#8879D2"/>
<path d="M481.861 477.153H481.969C482.604 477.153 483.114 476.631 483.099 475.997L481.385 401.718L476.337 401.129L480.642 476.002C480.679 476.648 481.214 477.153 481.861 477.153Z" fill="#61559C"/>
<path d="M400.685 477.153H400.577C399.943 477.153 399.433 476.631 399.447 475.997L401.161 401.718L406.209 401.129L401.905 476.002C401.867 476.648 401.333 477.153 400.685 477.153Z" fill="#8879D2"/>
<path d="M485.206 397.111V346.211C485.206 337.255 477.946 329.995 468.99 329.995H432.318C423.362 329.995 416.101 337.255 416.101 346.211V399.056L485.206 397.111Z" fill="#8879D2"/>
<path d="M409.531 405.146H480.337C483.026 405.146 485.206 402.966 485.206 400.277V397.111H409.531V405.146Z" fill="#61559C"/>
<path d="M401.046 405.147H454.614C456.602 405.147 458.214 403.535 458.214 401.546V400.711C458.214 398.723 456.602 397.111 454.614 397.111H401.046C399.057 397.111 397.445 398.723 397.445 400.711V401.546C397.445 403.535 399.057 405.147 401.046 405.147Z" fill="#A89CE4"/>
<path d="M524.48 129.217H313.073V311.712H524.48V129.217Z" fill="#282147"/>
<path d="M520.369 132.257H317.098V308.073H520.369V132.257Z" fill="#E4E1F0"/>
<path d="M388.143 208.753H343.601V153.132L351.154 146.324H388.143V208.753Z" fill="white"/>
<path d="M343.601 153.132H350.911L351.154 146.324L343.601 153.132Z" fill="#7A7AA9"/>
<path d="M373.003 151.737H358.741V152.416H373.003V151.737Z" fill="#7A7AA9"/>
<path d="M376.36 153.775H355.384V154.455H376.36V153.775Z" fill="#7A7AA9"/>
<path d="M383.704 166.86H348.874V167.733H383.704V166.86Z" fill="#7A7AA9"/>
<path d="M383.704 169.512H348.874V170.386H383.704V169.512Z" fill="#7A7AA9"/>
<path d="M383.704 172.165H348.874V173.038H383.704V172.165Z" fill="#7A7AA9"/>
<path d="M383.704 174.816H348.874V175.69H383.704V174.816Z" fill="#7A7AA9"/>
<path d="M383.704 203.194H348.874V204.068H383.704V203.194Z" fill="#7A7AA9"/>
<path d="M439.575 285.921H395.033V230.3L402.586 223.492H439.575V285.921Z" fill="white"/>
<path d="M395.033 230.3H402.343L402.586 223.492L395.033 230.3Z" fill="#7A7AA9"/>
<path d="M424.435 228.906H410.173V229.585H424.435V228.906Z" fill="#7A7AA9"/>
<path d="M427.793 230.943H406.816V231.622H427.793V230.943Z" fill="#7A7AA9"/>
<path d="M435.136 244.028H400.306V244.902H435.136V244.028Z" fill="#7A7AA9"/>
<path d="M435.136 246.681H400.306V247.554H435.136V246.681Z" fill="#7A7AA9"/>
<path d="M435.136 249.333H400.306V250.206H435.136V249.333Z" fill="#7A7AA9"/>
<path d="M435.136 251.984H400.306V252.857H435.136V251.984Z" fill="#7A7AA9"/>
<path d="M435.136 260.144H400.306V261.017H435.136V260.144Z" fill="#7A7AA9"/>
<path d="M435.136 262.796H400.306V263.669H435.136V262.796Z" fill="#7A7AA9"/>
<path d="M435.136 265.871H400.306V266.744H435.136V265.871Z" fill="#7A7AA9"/>
<path d="M464.711 146.324H440.115V168.007H464.711V146.324Z" fill="#7A7AA9"/>
<path d="M451.337 148.905C451.337 148.31 451.819 147.828 452.413 147.828C453.008 147.828 453.49 148.31 453.49 148.905C453.49 149.5 453.008 149.982 452.413 149.982C451.819 149.982 451.337 149.5 451.337 148.905Z" fill="#FD521B"/>
<path d="M463.934 174.851L439.397 176.562L440.906 198.194L465.443 196.482L463.934 174.851Z" fill="white"/>
<path d="M450.858 179.668C450.816 179.075 451.264 178.56 451.857 178.519C452.45 178.478 452.965 178.925 453.006 179.518C453.047 180.112 452.6 180.626 452.007 180.668C451.414 180.709 450.899 180.262 450.858 179.668Z" fill="#7A7AA9"/>
<path d="M382.196 254.735L357.659 256.447L359.168 278.078L383.705 276.367L382.196 254.735Z" fill="white"/>
<path d="M369.125 259.555C369.083 258.961 369.531 258.447 370.124 258.405C370.717 258.364 371.232 258.812 371.273 259.405C371.314 259.998 370.867 260.513 370.274 260.554C369.681 260.595 369.166 260.148 369.125 259.555Z" fill="#7A7AA9"/>
<path d="M351.315 270.233L326.721 270.486L326.944 292.167L351.538 291.914L351.315 270.233Z" fill="white"/>
<path d="M337.989 274.332C337.983 273.737 338.46 273.25 339.054 273.244C339.649 273.238 340.136 273.715 340.142 274.31C340.149 274.905 339.671 275.392 339.077 275.398C338.482 275.404 337.995 274.927 337.989 274.332Z" fill="#7A7AA9"/>
<path d="M501.17 192.227L476.958 187.9L473.143 209.246L497.356 213.573L501.17 192.227Z" fill="#CEC4E5"/>
<path d="M487.62 192.809C487.711 192.3 488.197 191.961 488.706 192.052C489.215 192.143 489.554 192.63 489.463 193.139C489.372 193.648 488.886 193.987 488.377 193.896C487.868 193.805 487.529 193.319 487.62 192.809Z" fill="#473C7C"/>
<path d="M425.613 174.391L401.16 177.038L403.493 198.596L427.947 195.949L425.613 174.391Z" fill="#CEC4E5"/>
<path d="M412.768 178.736C412.713 178.222 413.084 177.76 413.598 177.704C414.112 177.648 414.574 178.02 414.63 178.535C414.686 179.049 414.314 179.511 413.8 179.566C413.286 179.622 412.824 179.25 412.768 178.736Z" fill="#473C7C"/>
<path d="M361.748 225.664L337.694 230.792L342.215 251.999L366.269 246.871L361.748 225.664Z" fill="#FFBD00"/>
<path d="M349.84 231.864C349.406 231.583 349.283 231.003 349.564 230.569C349.846 230.135 350.426 230.011 350.86 230.293C351.294 230.574 351.417 231.154 351.136 231.588C350.854 232.022 350.274 232.146 349.84 231.864Z" fill="#FD521B"/>
<path d="M426.254 168.008H402.845V152.279L409.326 146.324H426.254V168.008Z" fill="white"/>
<path d="M402.72 152.279H409.114L409.326 146.324L402.72 152.279Z" fill="#7A7AA9"/>
<path d="M414.635 148.33C414.635 147.905 414.98 147.56 415.405 147.56C415.831 147.56 416.175 147.905 416.175 148.33C416.175 148.755 415.831 149.1 415.405 149.1C414.98 149.1 414.635 148.755 414.635 148.33Z" fill="#7A7AA9"/>
<path d="M494.654 296.763H471.244V281.034L477.725 275.079H494.654V296.763Z" fill="white"/>
<path d="M471.119 281.034H477.513L477.725 275.079L471.119 281.034Z" fill="#7A7AA9"/>
<path d="M483.035 277.086C483.035 276.661 483.379 276.316 483.804 276.316C484.23 276.316 484.574 276.661 484.574 277.086C484.574 277.511 484.23 277.856 483.804 277.856C483.38 277.856 483.035 277.511 483.035 277.086Z" fill="#7A7AA9"/>
<path d="M505.333 265.548H481.923V249.82L488.404 243.864H505.333V265.548Z" fill="white"/>
<path d="M481.798 249.82H488.192L488.404 243.864L481.798 249.82Z" fill="#7A7AA9"/>
<path d="M493.714 245.871C493.714 245.446 494.058 245.102 494.484 245.102C494.909 245.102 495.254 245.446 495.254 245.871C495.254 246.296 494.909 246.641 494.484 246.641C494.058 246.641 493.714 246.296 493.714 245.871Z" fill="#7A7AA9"/>
<path d="M474.439 265.548H451.03V249.82L457.511 243.864H474.439V265.548Z" fill="#FFBD00"/>
<path d="M450.905 249.82H457.299L457.511 243.864L450.905 249.82Z" fill="#DBA60C"/>
<path d="M462.82 245.871C462.82 245.446 463.165 245.102 463.59 245.102C464.015 245.102 464.36 245.446 464.36 245.871C464.36 246.296 464.015 246.641 463.59 246.641C463.165 246.641 462.82 246.296 462.82 245.871Z" fill="#EE5555"/>
<path d="M511.939 162.58H488.529V146.851L495.01 140.896H511.939V162.58Z" fill="#FFBD00"/>
<path d="M488.404 146.851H494.798L495.01 140.896L488.404 146.851Z" fill="#DBA60C"/>
<path d="M500.32 142.902C500.32 142.477 500.664 142.132 501.09 142.132C501.515 142.132 501.86 142.477 501.86 142.902C501.86 143.327 501.515 143.671 501.09 143.671C500.664 143.671 500.32 143.327 500.32 142.902Z" fill="#EE5555"/>
<path d="M280.441 124.803H235.912C233.868 124.803 232.195 123.13 232.195 121.086V78.1073C232.195 76.0631 233.868 74.3906 235.912 74.3906H280.441C282.486 74.3906 284.158 76.0631 284.158 78.1073V121.086C284.158 123.13 282.486 124.803 280.441 124.803Z" fill="#282147"/>
<path d="M278.513 122.618H237.841C235.974 122.618 234.446 121.091 234.446 119.223V79.9685C234.446 78.1013 235.974 76.5737 237.841 76.5737H278.513C280.38 76.5737 281.907 78.1013 281.907 79.9685V119.223C281.907 121.091 280.379 122.618 278.513 122.618Z" fill="#ECEBFF"/>
<path d="M257.101 81.1756C257.101 80.5811 257.582 80.0991 258.177 80.0991C258.771 80.0991 259.253 80.5808 259.253 81.1756C259.253 81.7701 258.771 82.252 258.177 82.252C257.583 82.2517 257.101 81.7701 257.101 81.1756Z" fill="#9595B1"/>
<path d="M265.786 82.6973C266.075 82.1776 266.73 81.9904 267.25 82.2795C267.769 82.5683 267.957 83.2235 267.668 83.7432C267.379 84.2629 266.723 84.4502 266.204 84.1614C265.684 83.8722 265.497 83.217 265.786 82.6973Z" fill="#9595B1"/>
<path d="M273.227 88.6081C273.727 88.2857 274.393 88.4296 274.715 88.9291C275.037 89.4288 274.893 90.0949 274.394 90.4171C273.894 90.7392 273.228 90.5956 272.906 90.0962C272.584 89.5967 272.727 88.9303 273.227 88.6081Z" fill="#9595B1"/>
<path d="M276.913 97.7588C277.507 97.7588 277.989 98.2408 277.989 98.8352C277.989 99.4297 277.507 99.9117 276.913 99.9117C276.318 99.9117 275.836 99.4297 275.836 98.8352C275.836 98.2408 276.318 97.7588 276.913 97.7588Z" fill="#9595B1"/>
<path d="M275.031 108.377C275.451 108.797 275.451 109.479 275.031 109.899C274.61 110.32 273.929 110.32 273.508 109.899C273.088 109.479 273.088 108.797 273.508 108.377C273.929 107.956 274.61 107.956 275.031 108.377Z" fill="#9595B1"/>
<path d="M268.272 115.155C268.692 115.575 268.692 116.257 268.272 116.677C267.851 117.098 267.17 117.098 266.749 116.677C266.329 116.257 266.329 115.575 266.749 115.155C267.17 114.734 267.851 114.734 268.272 115.155Z" fill="#9595B1"/>
<path d="M257.101 118.646C257.101 118.052 257.582 117.57 258.177 117.57C258.771 117.57 259.253 118.052 259.253 118.646C259.253 119.241 258.771 119.723 258.177 119.723C257.583 119.723 257.101 119.241 257.101 118.646Z" fill="#9595B1"/>
<path d="M250.534 82.6973C250.245 82.1776 249.59 81.9904 249.07 82.2795C248.55 82.5683 248.363 83.2235 248.652 83.7432C248.941 84.2629 249.596 84.4502 250.115 84.1614C250.635 83.8722 250.822 83.217 250.534 82.6973Z" fill="#9595B1"/>
<path d="M243.092 88.6081C242.593 88.2857 241.927 88.4296 241.604 88.9291C241.282 89.4288 241.426 90.0949 241.925 90.4171C242.425 90.7392 243.091 90.5956 243.413 90.0962C243.736 89.5967 243.592 88.9303 243.092 88.6081Z" fill="#9595B1"/>
<path d="M239.407 97.7588C238.812 97.7588 238.33 98.2408 238.33 98.8352C238.33 99.4297 238.812 99.9117 239.407 99.9117C240.001 99.9117 240.483 99.4297 240.483 98.8352C240.483 98.2408 240.001 97.7588 239.407 97.7588Z" fill="#9595B1"/>
<path d="M241.289 108.377C240.868 108.797 240.868 109.479 241.289 109.899C241.709 110.32 242.39 110.32 242.811 109.899C243.231 109.479 243.231 108.797 242.811 108.377C242.39 107.956 241.709 107.956 241.289 108.377Z" fill="#9595B1"/>
<path d="M248.048 115.154C247.627 115.574 247.627 116.256 248.048 116.676C248.468 117.097 249.15 117.097 249.57 116.676C249.991 116.256 249.991 115.574 249.57 115.154C249.15 114.733 248.468 114.733 248.048 115.154Z" fill="#9595B1"/>
<path d="M257.887 98.8352C257.887 98.2408 258.369 97.7588 258.963 97.7588C259.557 97.7588 260.039 98.2408 260.039 98.8352C260.039 99.4297 259.557 99.9117 258.963 99.9117C258.369 99.9117 257.887 99.4297 257.887 98.8352Z" fill="#282147"/>
<path d="M259.11 85.3872H258.816V98.8341H259.11V85.3872Z" fill="#282147"/>
<path d="M265.684 92.865L258.556 98.4624L259.101 99.1559L266.229 93.5585L265.684 92.865Z" fill="#282147"/>
<path d="M110.423 260.735C109.41 258.781 132.525 251.746 132.891 271.028C132.891 271.028 176.191 269.964 155.516 245.829C148.359 237.474 149.095 230.566 149.31 224.135C149.527 217.704 144.852 199.012 128.824 200.894C128.824 200.894 124.627 199.187 119.389 201.904C107.477 208.084 80.7916 267.846 110.423 260.735Z" fill="#201836"/>
<path d="M181.214 282.292C181.214 282.292 184.032 278.002 186.304 277.918C188.575 277.833 192.782 276.655 192.445 277.497C192.109 278.338 189.501 278.422 189.248 278.927C188.996 279.432 193.118 280.189 194.296 280.273C195.474 280.357 198.251 280.273 198.167 280.862C198.082 281.451 193.162 283.891 189.691 283.554C186.22 283.218 181.929 284.564 181.929 284.564L181.214 282.292Z" fill="#FFB27D"/>
<path d="M140.451 283.681C140.451 283.681 141.983 286.715 144.762 290.2C148.112 294.395 153.276 299.241 159.76 300.198C162.857 300.655 165.885 299.988 168.669 298.752C168.677 298.749 168.679 298.749 168.679 298.749C176.554 295.253 182.475 287.214 182.475 287.214C183.864 283.428 181.592 280.861 181.592 280.861C181.592 280.861 165.691 284.438 164.177 283.681C162.662 282.923 153.828 257.474 151.726 254.277C149.621 251.079 142.453 249.418 142.453 249.418L140.451 283.681Z" fill="#473C7C"/>
<path d="M144.762 290.2C148.112 294.395 153.276 299.241 159.76 300.197C162.857 300.654 165.885 299.988 168.669 298.751C168.362 298.791 160.497 299.763 157.362 294.155C154.164 288.433 150.706 279.347 145.956 282.375C143.907 283.683 143.997 286.931 144.762 290.2Z" fill="#393062"/>
<path d="M81.1271 455.324C81.1271 455.324 76.2751 459.752 77.222 462.899C78.1688 466.045 82.5472 468.142 83.1389 471.988C83.7306 475.833 86.0975 477.93 88.2277 477.93C90.3579 477.93 98.3832 477.93 98.3832 477.93C98.3832 477.93 99.9513 475.224 96.1642 474.409C92.3775 473.593 90.9496 469.075 91.1864 464.879C91.4231 460.684 90.8312 455.091 90.8312 455.091L82.784 453.227L81.1271 455.324Z" fill="#201A31"/>
<path d="M122.195 457.204C122.195 457.204 120.449 475.963 122.579 477.011L149.84 476.955C149.84 476.955 149.84 473.809 145.461 473.11C141.083 472.411 133.39 469.847 132.089 464.137C130.787 458.428 122.195 457.204 122.195 457.204Z" fill="#201A31"/>
<path d="M102.768 322.628C108.378 310.047 111.81 306.436 111.155 302.531C110.667 299.625 112.64 248.344 112.64 248.344C113.306 248.138 114.64 247.953 115.37 247.791C117.671 247.28 119.575 245.663 120.368 243.444C121.323 240.77 122.082 236.822 122.064 231.874L122.783 232.015L134.866 234.408C134.866 234.408 134.591 238.21 134.583 241.793C134.583 241.822 134.583 241.852 134.583 241.882C134.568 244.993 136.609 247.738 139.598 248.601C141.124 249.042 142.452 249.419 142.452 249.419C142.452 249.419 146.889 262.086 147.736 275.099C148.583 288.112 139.668 293.765 147.803 319.769C156.109 346.328 99.6688 329.58 102.768 322.628Z" fill="#FFB27D"/>
<path d="M134.865 234.407C134.865 234.407 134.591 238.21 134.582 241.792C127.821 241.602 124.247 235.433 122.783 232.015L134.865 234.407Z" fill="#E8945B"/>
<path d="M137.124 237.799C137.124 237.799 121.126 238.063 121.115 228.098C121.105 218.134 119.032 211.456 129.246 210.867C139.459 210.277 141.448 214.077 142.26 217.402C143.073 220.727 141.285 237.474 137.124 237.799Z" fill="#FFB27D"/>
<path d="M136.532 210.623C136.532 210.623 132.152 222.313 125.43 224.042C118.708 225.77 115.792 223.969 115.792 223.969C115.792 223.969 120.948 219.873 122.018 212.723C122.018 212.723 133.227 205.058 136.532 210.623Z" fill="#201836"/>
<path d="M135.446 211.571C135.446 211.571 138.694 212.786 140.031 215.154C141.338 217.471 142.451 220.539 142.193 224.302C142.193 224.302 145.493 216.356 141.784 211.861C137.852 207.095 135.446 211.571 135.446 211.571Z" fill="#201836"/>
<path d="M133.643 231.617C133.643 231.617 134.747 233.07 136.955 232.965C138.734 232.881 139.42 231.338 139.42 231.338C139.42 231.338 136.152 230.552 133.643 231.617Z" fill="#EBF3FA"/>
<path d="M101.224 271.028C101.224 271.028 100.817 276.756 101.224 283.629C101.494 288.185 106.102 294.287 106.756 295.796C108.397 299.582 110.247 300.198 110.247 300.198L124.56 303.706L129.593 304.938L145.464 300.198C145.464 300.198 152.692 280.021 149.79 268.663C146.887 257.306 142.452 249.418 142.452 249.418C142.452 249.418 129.502 262.098 112.639 248.343L101.224 271.028Z" fill="#473C7C"/>
<path d="M105.413 285.487C105.684 290.043 106.102 294.286 106.756 295.795C108.397 299.581 110.247 300.197 110.247 300.197L124.561 303.705L130.777 301.878C130.777 301.878 110.025 298.733 112.325 280.879L105.413 285.487Z" fill="#F2CCAA"/>
<path d="M144.454 303.26C144.454 303.26 152.314 327.724 152.819 336.053C153.324 344.382 137.795 454.376 137.17 458.214C136.581 461.831 132.089 464.138 132.089 464.138C132.089 464.138 130.023 465.356 127.074 464.524C122.983 463.368 121.69 461.986 121.69 461.986C121.69 461.986 115.572 383.539 119.358 355.516C123.144 327.493 123.188 303.26 123.188 303.26H144.454Z" fill="#E3AC0C"/>
<path d="M111.155 302.53C111.155 302.53 99.1662 318.616 98.0483 329.49C96.9307 340.364 96.2948 378.56 93.9135 389.161C91.5325 399.762 82.7838 420.162 82.7838 453.226C82.7838 453.226 83.6929 455.121 86.501 456.131C87.399 456.454 88.6019 456.767 89.77 457.034C92.0859 457.565 94.4615 456.433 95.5184 454.306C101.433 442.397 120.274 403.988 121.24 396.015C121.924 390.373 127.873 353.03 140.849 331.117C143.964 325.857 138.937 304.936 138.937 304.936L111.155 302.53Z" fill="#FFBD00"/>
<path d="M133.998 231.884C133.998 231.884 134.275 233.059 137.196 232.878C137.196 232.878 139.649 232.726 139.574 231.435C139.574 231.435 137.196 230.517 133.998 231.884Z" fill="white"/>
<path d="M145.71 299.484C145.71 299.484 142.555 301.98 136.287 302.106C128.8 302.257 110.248 300.197 110.248 300.197C110.248 300.197 109.423 302.5 109.457 304.932C109.457 304.932 132.115 310.648 145.243 305.767C145.243 305.767 146.937 302.581 145.71 299.484Z" fill="#201A31"/>
<path d="M134.667 304.691C134.667 302.559 136.199 300.825 138.083 300.825C139.967 300.825 141.499 302.559 141.499 304.691C141.499 306.824 139.967 308.558 138.083 308.558C136.199 308.558 134.667 306.824 134.667 304.691ZM135.799 304.691C135.799 306.199 136.824 307.426 138.083 307.426C139.343 307.426 140.367 306.199 140.367 304.691C140.367 303.184 139.343 301.957 138.083 301.957C136.824 301.957 135.799 303.184 135.799 304.691Z" fill="white"/>
<path d="M85.8481 303.894L109.063 324.108L136.733 292.33L113.518 272.116L85.8481 303.894Z" fill="#B5453C"/>
<path d="M115.484 303.983C115.484 303.983 123.989 304.977 123.962 306.997C123.936 309.016 121.843 313.163 120.793 313.348C119.742 313.532 113.871 307.739 113.871 307.739L115.484 303.983Z" fill="#FFB27D"/>
<path d="M112.64 248.343C112.64 248.343 101.284 249.139 96.931 259.721C92.5778 270.302 84.3191 288.069 84.3191 291.058C84.3191 294.047 88.9325 303.26 113.709 308.558C113.709 308.558 116.272 305.862 116.117 303.73C116.117 303.73 100.65 290.446 100.692 288.893C100.77 285.956 103.227 282.079 116.807 268.496C120.498 264.803 112.64 248.343 112.64 248.343Z" fill="#473C7C"/>
<path d="M238.102 477.351H237.994C237.36 477.351 236.85 476.829 236.864 476.195L238.578 401.916L243.626 401.327L239.321 476.2C239.284 476.847 238.749 477.351 238.102 477.351Z" fill="#8879D2"/>
<path d="M208.684 477.351H208.577C207.942 477.351 207.432 476.829 207.447 476.195L209.161 401.916L214.209 401.327L209.904 476.2C209.867 476.847 209.332 477.351 208.684 477.351Z" fill="#61559C"/>
<path d="M289.86 477.351H289.968C290.603 477.351 291.113 476.829 291.098 476.195L289.384 401.916L284.336 401.327L288.641 476.2C288.678 476.847 289.213 477.351 289.86 477.351Z" fill="#8879D2"/>
<path d="M205.339 397.31V346.41C205.339 337.454 212.6 330.193 221.556 330.193H258.228C267.184 330.193 274.445 337.454 274.445 346.41V399.254L205.339 397.31Z" fill="#8879D2"/>
<path d="M281.015 405.345H210.209C207.52 405.345 205.34 403.165 205.34 400.476V397.309H281.015L281.015 405.345Z" fill="#61559C"/>
<path d="M289.5 405.345H235.932C233.944 405.345 232.332 403.733 232.332 401.745V400.91C232.332 398.921 233.944 397.309 235.932 397.309H289.5C291.488 397.309 293.1 398.921 293.1 400.91V401.745C293.1 403.733 291.488 405.345 289.5 405.345Z" fill="#8879D2"/>
<path d="M287.42 384.626C282.167 393.77 275.559 397.299 275.559 397.299H248.07C248.07 397.299 291.428 377.651 287.42 384.626Z" fill="#29294A"/>
<path d="M266.307 455.372C265.591 456.193 265.5 457.11 265.854 458.09C265.855 458.094 265.857 458.1 265.861 458.103C266.517 459.915 268.683 461.939 271.199 463.959C271.52 464.219 271.806 464.455 272.056 464.673C272.121 464.731 272.186 464.788 272.248 464.846C272.299 464.89 272.348 464.937 272.396 464.979C274.743 467.142 273.86 467.638 278.075 472.026C282.881 477.027 286.19 477.117 287.132 476.662C287.928 476.274 286.31 473.621 284.517 470.64C284.43 470.497 284.345 470.351 284.256 470.205C284.017 469.809 283.78 469.407 283.543 469.008C281.442 465.42 281.981 463.737 282.479 458.398C282.884 454.058 289.229 434.157 289.229 434.157L280.018 432.57C280.018 432.57 277.244 448.417 274.188 450.858C272.554 452.159 270.725 452.176 269.154 453.14C269.043 453.207 268.934 453.275 268.827 453.346C267.935 453.938 267.026 454.548 266.307 455.372Z" fill="#FFB27D"/>
<path d="M266.307 455.371C265.591 456.192 265.5 457.109 265.854 458.089C265.855 458.094 265.857 458.099 265.861 458.103C266.664 459.913 268.775 461.926 271.208 463.94C271.526 464.204 271.806 464.446 272.056 464.673C272.121 464.73 272.186 464.787 272.248 464.845C272.299 464.89 272.348 464.936 272.396 464.979C274.743 467.142 273.86 467.637 278.075 472.026C282.881 477.027 286.19 477.117 287.132 476.661C287.928 476.273 286.31 473.621 284.517 470.64C283.581 470.297 279.235 468.531 275.949 464.326C273.055 460.633 271.125 455.888 269.154 453.14C269.043 453.207 268.934 453.275 268.827 453.346C267.935 453.937 267.026 454.548 266.307 455.371Z" fill="#29294A"/>
<path d="M340.577 449.619C341.146 452.462 345.199 451.988 349.727 450.881C354.255 449.775 353.178 451.091 359.622 450.377C366.066 449.664 368.018 447.261 368.215 446.303C368.391 445.453 365.207 445.153 361.791 444.76C361.362 444.712 360.93 444.658 360.499 444.605C356.643 444.121 353.819 441.633 350.317 439.589C346.999 437.654 342.048 429.768 342.048 429.768L333.21 430.468C333.21 430.468 337.848 437.511 339.642 440.574C340.697 442.375 340.641 444.757 340.509 446.596C340.441 447.596 340.376 448.618 340.577 449.619Z" fill="#FFB27D"/>
<path d="M349.727 450.882C354.255 449.775 353.179 451.091 359.623 450.378C366.067 449.664 368.019 447.261 368.215 446.303C368.391 445.453 365.207 445.153 361.792 444.76L361.76 444.826C361.76 444.826 357.895 447.566 352.531 447.694C348.159 447.8 343.528 446.548 340.51 446.597C340.441 447.596 340.376 448.618 340.577 449.62C341.146 452.463 345.199 451.988 349.727 450.882Z" fill="#29294A"/>
<path d="M306.71 393.11L298.449 415.34L287.663 444.367C287.663 444.367 284.736 444.649 281.933 443.843C279.352 443.097 276.391 441.146 276.391 441.146C276.391 441.146 279.386 409.98 284.973 392.089C286.405 387.497 288.009 383.782 289.78 381.691C298.441 371.456 306.71 393.11 306.71 393.11Z" fill="#29294A"/>
<path d="M298.311 357.806C292.898 356.06 277.462 358.301 261.955 361.337L258.708 355.982L225.214 353.366C225.214 353.366 214.162 377.876 220.213 393.493C221.102 395.789 222.869 397.261 225.881 397.309C225.883 397.311 226.369 397.308 226.37 397.309C226.37 397.309 246.305 397.298 252.778 397.298C269.435 397.298 288.031 385.848 290.436 385.367C294.373 384.579 295.948 392.454 299.885 400.722C303.823 408.99 336.896 437.339 336.896 437.339C336.896 437.339 341.979 437.389 344.079 436.602C346.337 435.755 347.163 434.655 347.163 434.655C347.163 434.655 310.516 361.743 298.311 357.806Z" fill="#393965"/>
<path d="M257.39 258.453C253.1 256.2 246.571 255.895 245.511 255.753C232.818 254.047 225.18 272.49 224.73 278.079C223.902 288.379 218.453 289.95 210.783 296.4C195.405 309.335 199.914 324.365 208.324 329.95C213.369 333.301 222.262 329.95 222.262 329.95C222.388 330.037 246.584 316.423 258.511 309.856C276.391 307.314 268.324 264.195 257.39 258.453Z" fill="#29294A"/>
<path d="M248.514 304.265C248.567 304.299 242.646 306.321 238.687 304.568C234.962 302.922 232.141 296.794 232.196 296.791C233.89 296.713 235.75 295.231 237.183 285.512L237.905 285.771L250.035 290.136C250.035 290.136 249.156 294.028 248.588 297.734C248.109 300.845 247.852 303.826 248.514 304.265Z" fill="#FFB27D"/>
<path d="M250.035 290.136C250.035 290.136 249.156 294.028 248.587 297.734C241.62 296.48 238.885 289.538 237.904 285.771L250.035 290.136Z" fill="#ED975D"/>
<path d="M251.842 293.998C251.842 293.998 235.245 291.77 236.791 281.456C238.337 271.142 237.237 263.908 247.899 264.894C258.561 265.88 260.025 270.124 260.346 273.692C260.667 277.261 256.199 294.312 251.842 293.998Z" fill="#FFB27D"/>
<path d="M259.741 268.04C259.741 268.04 249.117 277.195 241.89 277.933C234.663 278.671 231.928 276.352 231.928 276.352C231.928 276.352 236.187 272.815 238.751 267.107C239.506 265.425 241.102 264.271 242.94 264.112C248.1 263.667 257.882 263.464 259.741 268.04Z" fill="#29294A"/>
<path d="M253.1 267.219C253.1 267.219 256.654 270.655 257.773 273.204C258.853 275.664 259.177 281.547 258.317 283.884C258.317 283.884 263.855 273.116 260.72 267.884C257.395 262.337 253.1 267.219 253.1 267.219Z" fill="#29294A"/>
<path d="M262.49 328.715C261.988 362.31 262.352 355.29 258.677 358.478C257.792 359.245 255.302 359.703 252.026 359.919C241.724 360.603 223.615 358.906 222.926 357.002C220.55 350.415 222.228 348.368 220.245 338.283C220.039 337.211 219.783 336.05 219.483 334.785C217.83 327.859 216.221 325.502 222.085 314.374C227.403 304.293 232.928 296.113 233.425 296.408C247.455 304.736 248.587 297.736 248.587 297.736C248.587 297.736 262.736 312.328 262.49 328.715Z" fill="white"/>
<path d="M298.449 415.341L287.663 444.367C287.663 444.367 284.736 444.65 281.933 443.844C279.352 443.097 276.391 441.146 276.391 441.146C276.391 441.146 279.386 409.98 284.973 392.089L298.449 415.341Z" fill="#393965"/>
<path d="M248.588 297.734C248.588 297.734 263.025 300.182 264.72 306.398C266.415 312.614 276.391 349.156 276.391 349.156C276.391 349.156 269.052 350.474 265.662 347.084C262.271 343.693 253.864 315.628 253.864 315.628L248.588 297.734Z" fill="white"/>
<path d="M252.026 359.919C241.724 360.603 223.615 358.906 222.926 357.002C220.55 350.415 222.228 348.368 220.245 338.283L225.214 324.292C225.214 324.292 224.392 339.872 228.987 343.97C233.577 348.068 247.8 351.881 250.033 355.305C251.111 356.948 251.819 358.596 252.026 359.919Z" fill="#EBF3FF"/>
<path d="M240.223 353.366C240.223 353.366 250.386 351.103 252.026 352.005C253.666 352.907 257.673 356.192 258.175 357.335C258.677 358.478 254.524 356.467 253.174 356.105C252.299 355.87 249.996 356.67 248.856 357.05C244.06 358.649 241.121 357.827 241.121 357.827L240.223 353.366Z" fill="#FFB27D"/>
<path d="M233.417 296.401C233.417 296.401 219.77 297.241 215.046 303.83C208.396 313.105 195.204 352.633 202.765 357.905C211.279 363.842 241.515 359.458 241.515 359.458C241.515 359.458 242.521 354.755 241.121 352.48C239.721 350.205 216.971 346.53 215.921 345.48C214.871 344.43 229.046 325.005 229.046 321.855C229.046 318.705 233.417 296.401 233.417 296.401Z" fill="white"/>
<path d="M252.518 354.833C252.518 354.833 254.647 357.58 255.345 357.908C256.043 358.236 256.494 358.154 256.494 358.154L255.059 355.571L252.518 354.833Z" fill="#FFB27D"/>
<path d="M252.026 352.005L258.217 355.011C258.217 355.011 257.954 355.442 257.191 355.407C256.429 355.372 254.506 354.669 254.506 354.669L252.026 352.005Z" fill="#FFB27D"/>
<path d="M255.345 362.116H304.32L319.053 325.48H270.153L255.345 362.116Z" fill="#FFBD00"/>
<path d="M304.894 360.688H240.223V362.116H304.32L304.894 360.688Z" fill="#BD8F0A"/>
<path d="M291.957 343.798C292.327 342.51 291.582 341.466 290.294 341.466C289.006 341.466 287.663 342.51 287.294 343.798C286.925 345.086 287.669 346.13 288.957 346.13C290.245 346.13 291.588 345.086 291.957 343.798Z" fill="white"/>
<path d="M511.135 478.707H511.278C512.116 478.707 512.791 477.976 512.772 477.088L510.506 373.088L503.83 372.263L509.523 477.095C509.571 478 510.279 478.707 511.135 478.707Z" fill="#1F1D2B"/>
<path d="M240.466 478.707H240.323C239.484 478.707 238.809 477.976 238.829 477.088L241.095 373.088L247.771 372.263L242.078 477.095C242.029 478 241.322 478.707 240.466 478.707Z" fill="#1F1D2B"/>
<path d="M519.174 375.001H233.547C231.207 375.001 229.31 373.104 229.31 370.764V366.687C229.31 364.348 231.207 362.451 233.547 362.451H519.174C521.514 362.451 523.411 364.348 523.411 366.687V370.764C523.41 373.104 521.514 375.001 519.174 375.001Z" fill="#1F1D2B"/>
<path d="M171.299 184.206C170.22 157.502 192.602 145.639 215.488 145.639C238.374 145.639 263.279 151.568 265.437 187.077C266.825 209.921 254.647 223.977 219.581 223.977C207.755 223.977 198.564 222.112 191.524 218.785L173.996 234.36L182.61 212.831C174.979 205.737 171.764 195.73 171.299 184.206Z" fill="#C8C8E9"/>
<path d="M588.99 477.265C588.99 477.265 589.634 472.249 591.125 469.266C592.617 466.284 602.108 468.182 602.108 468.182C602.108 468.182 604.006 469.809 604.412 477.401L588.99 477.265Z" fill="#191C27"/>
<path d="M556.655 477.198C558.885 475.837 557.616 465.683 557.616 465.683C557.616 465.683 547.225 457.37 545.796 463.734C544.367 470.099 535.924 472.957 531.119 473.736C527.801 474.274 526.774 476.112 526.456 477.198H556.655Z" fill="#191C27"/>
<path d="M578.179 403.345C577.756 405.675 577.487 407.587 577.416 408.957C576.45 427.8 561.556 470.881 558.892 471.886C554.769 473.442 548.278 470.135 544.881 469.053C543.474 468.604 542.524 467.184 542.837 465.744C550.213 431.834 552.924 383.006 553.91 354.097C554.409 339.536 556.908 329.477 556.908 329.477C556.908 329.477 593.236 319.784 593.452 332.045C593.643 342.895 581.419 385.446 578.179 403.345Z" fill="#252837"/>
<path d="M578.179 403.345L553.91 354.097C554.409 339.536 556.908 329.477 556.908 329.477C556.908 329.477 593.236 319.784 593.452 332.045C593.643 342.895 581.419 385.446 578.179 403.345Z" fill="#191C27"/>
<path d="M570.096 332.088L589.301 471.276C589.301 471.276 597.734 473.309 604.293 471.683C604.293 471.683 609.916 397.656 609.447 379.76C608.979 361.864 613.482 331.872 608.42 328.565C603.357 325.257 570.096 332.088 570.096 332.088Z" fill="#252837"/>
<path d="M612.163 329.769C612.255 331.027 611.45 332.171 610.239 332.522C607.56 333.3 604.472 333.84 598.515 335.075C592.92 336.237 585.393 337.265 576.144 337.322C561.433 337.416 555.864 332.346 555.864 332.346C555.23 332.357 556.198 329.278 557.071 314.64C557.366 309.681 557.652 303.396 557.857 295.452C558.043 288.304 558.168 279.812 558.18 269.738C558.196 257.62 576.954 244.582 577.3 244.582L577.304 244.587C577.304 246.332 580.054 249.552 584.289 249.83C589.317 250.159 595.485 247.657 595.485 244.761C595.485 244.732 604.573 259.3 607.801 274.822C609.432 282.635 608.772 282.426 612.163 329.769Z" fill="#8B8BDD"/>
<path d="M577.3 244.582C577.3 244.582 559.858 244.434 555.66 250.322C551.462 256.209 542.258 287.88 547.06 298.419C551.864 308.957 560.851 294.06 565.839 287.604C570.827 281.149 577.3 244.582 577.3 244.582Z" fill="#8B8BDD"/>
<path d="M577.122 241.92L577.132 243.723C577.132 243.723 576.641 249.362 583.585 250.185C590.528 251.011 595.682 249.132 595.494 244.781C594.869 241.411 594.289 237.952 594.242 235.164C594.225 234.128 594.296 233.028 594.489 231.787L581.034 231.519L577.07 232.166L577.122 241.92Z" fill="#FFB27D"/>
<path d="M577.071 232.166L577.122 241.92C578.552 242.584 580.164 242.99 581.972 242.99C588.156 242.99 592.153 238.455 594.242 235.164C594.225 234.128 594.296 233.028 594.489 231.787L581.034 231.519L577.071 232.166Z" fill="#E2915A"/>
<path d="M595.52 229.623C593.959 238.024 583.118 237.749 578.433 237.221C577.114 237.074 576.285 236.906 576.285 236.906C574.798 236.509 573.969 234.167 573.583 231.1C572.818 225.03 573.784 216.119 574.81 213.84C576.353 210.411 579.26 206.702 590.178 209.378C601.097 212.056 597.523 218.857 595.52 229.623Z" fill="#FFB27D"/>
<path d="M559.464 268.185C559.464 268.185 552.718 283.084 552.914 287.549C552.914 287.549 556.254 287.435 559.464 288.391C564.737 289.963 559.464 268.185 559.464 268.185Z" fill="#7676BD"/>
<path d="M571.459 205.842C571.459 205.842 576.265 205.472 581.933 203.008C586.533 201.007 592.337 203.21 594.221 204.203C594.171 203.899 594.049 203.485 593.762 203.069C593.762 203.069 594.607 203.669 594.732 204.508C594.819 204.572 594.858 204.616 594.836 204.631C594.836 204.631 595.795 204.456 596.411 204.733C596.411 204.733 595.98 204.671 595.826 204.948C595.809 204.978 595.785 205.003 595.756 205.025C602.933 208.492 603.595 219.833 601.286 222.458C598.508 225.615 594.312 232.759 594.312 232.759C594.312 232.759 593.961 231.046 594.466 228.267C594.971 225.489 592.572 225.489 589.541 224.226C586.51 222.963 589.036 219.427 586.383 217.28C583.731 215.133 574.007 216.396 574.133 214.754C570.524 213.439 571.459 206.211 571.459 205.842Z" fill="#191C27"/>
<path d="M597.718 296.093C594.87 307.529 564.072 313.439 557.071 314.64C557.366 309.681 557.652 303.396 557.857 295.452L597.718 296.093Z" fill="#7676BD"/>
<path d="M590.958 299.81C591.252 299.81 597.805 298.832 598.979 298.246C600.152 297.659 605.52 290.03 602.005 288.074C598.49 286.117 589.052 293.942 589.052 293.942L590.958 299.81Z" fill="#FFB27D"/>
<path d="M551.1 302.077C551.1 302.077 576.445 303.452 593.454 299.811C593.454 299.811 593.883 294.897 588.538 292.714C588.538 292.714 562.028 287.096 555.66 288.661C549.291 290.225 551.1 302.077 551.1 302.077Z" fill="#8B8BDD"/>
<path d="M609.305 282.187C604.045 288.529 597.169 293.707 589.589 294.92L589.587 294.918C589.524 294.822 587.292 291.434 587.711 286.453C587.905 284.149 588.666 281.502 590.471 278.684C591.027 277.817 591.522 276.804 591.962 275.679C596.101 265.117 595.485 244.761 595.485 244.761C595.485 244.761 613.063 246.602 618.541 254.427C621.895 259.219 617.617 272.16 609.305 282.187Z" fill="#8B8BDD"/>
<path d="M578.433 237.22C577.114 237.073 576.285 236.905 576.285 236.905C574.798 236.508 573.968 234.166 573.583 231.099C576.371 231.785 577.648 233.939 578.18 234.856C578.421 235.27 578.47 236.195 578.433 237.22Z" fill="#E2915A"/>
<path d="M571.35 241.972C571.35 241.972 565.279 231.954 570.001 231.518C574.721 231.082 576.618 234.277 577.3 235.451C577.982 236.625 577.122 241.919 577.122 241.919L571.35 241.972Z" fill="#FFB27D"/>
<path d="M594.489 286.117C594.303 287.386 593.924 288.554 593.454 289.595C591.971 292.887 589.589 294.92 589.589 294.92L589.587 294.918C573.82 287.801 570.629 263.363 570.095 249.935C569.88 244.538 570.095 240.919 570.095 240.919C577.208 238.564 579.207 242.656 579.207 242.656C579.207 242.656 587.605 262.627 591.962 275.679C593.628 280.673 594.702 284.656 594.489 286.117Z" fill="#8B8BDD"/>
<path d="M609.305 282.186C604.045 288.528 597.169 293.706 589.589 294.919L589.587 294.917C573.82 287.8 570.629 263.362 570.095 249.935C570.095 249.935 577.556 276.995 587.711 286.453C589.546 288.164 591.471 289.299 593.454 289.594C593.454 289.594 606.26 285.976 608.946 282.568C609.137 282.323 609.255 282.202 609.305 282.186Z" fill="#7676BD"/>
<path d="M424.599 362.452H375.624L360.891 325.816H409.791L424.599 362.452Z" fill="#29294A"/>
<path d="M375.05 361.025H439.721V362.452H375.624L375.05 361.025Z" fill="#29294A"/>
<path d="M387.987 344.134C387.617 342.846 388.362 341.803 389.65 341.803C390.938 341.803 392.281 342.847 392.65 344.134C393.02 345.422 392.275 346.466 390.987 346.466C389.699 346.466 388.356 345.422 387.987 344.134Z" fill="white"/>
<path d="M643.251 477.661V478.003C643.251 478.55 642.941 479 642.566 479H40.1052C39.7299 479 39.4209 478.55 39.4209 478.003V477.661C39.4209 477.114 39.7299 476.664 40.1052 476.664H642.566C642.941 476.664 643.251 477.114 643.251 477.661Z" fill="#ECEBFF"/>
</svg>
