<svg width="37" height="25" viewBox="0 0 37 25" fill="none" xmlns="http://www.w3.org/2000/svg">
<g clip-path="url(#clip0_5_97)">
<path d="M8.95512 9.35255C10.2619 8.07087 12.3697 8.08192 13.6631 9.37696L22.4376 18.1642C23.1452 18.8728 24.1379 19.2263 25.1388 19.126L26.3238 19.0074L21.5912 23.6484C20.2844 24.93 18.1764 24.919 16.8832 23.6239L14.3367 21.0738C13.7386 20.4748 13.7438 19.5087 14.3482 18.916L14.5552 18.713C15.0453 18.2323 15.0494 17.4489 14.5644 16.9633C14.0795 16.4777 13.289 16.4736 12.799 16.9542L6.76494 22.8714C5.45812 24.1531 3.35016 24.1421 2.05701 22.847L1.00328 21.7918C-0.289968 20.4968 -0.278915 18.4078 1.02795 17.1263L8.95512 9.35255Z" fill="#9F8EED"/>
<path d="M14.1312 9.84592L19.8681 15.5912L21.8 17.5258L19.6704 19.6143C18.3634 20.8959 16.2556 20.8849 14.9624 19.5898L14.3184 18.9449L14.5551 18.713C15.0452 18.2323 15.0493 17.4489 14.5643 16.9633C14.0794 16.4777 13.2889 16.4736 12.7989 16.9542L6.74018 22.8957C5.44685 24.1638 3.36103 24.1531 2.08128 22.8714C1.7445 22.5343 1.74738 21.9902 2.08772 21.6565L14.1312 9.84592Z" fill="#7766C6"/>
<path d="M17.0582 12.7771L18.8145 14.5359L14.3184 18.9449C14.3184 18.9449 15.5474 17.972 14.5643 16.9633C13.8705 16.2514 12.9172 16.8381 12.9172 16.8381L17.0582 12.7771Z" fill="#29294A"/>
<path d="M27.9158 15.5017C26.6089 16.7833 24.501 16.7723 23.2078 15.4772L14.4331 6.69004C13.7257 5.9814 12.7328 5.62791 11.7321 5.7282L10.5471 5.84697L15.2797 1.20585C16.5865 -0.0756683 18.6943 -0.064781 19.9876 1.23026L22.534 3.78044C23.1323 4.37955 23.1271 5.34551 22.5227 5.93835L22.3156 6.14141C21.8256 6.62191 21.8214 7.40527 22.3063 7.8909C22.7914 8.37652 23.5817 8.38064 24.0719 7.90013L30.1059 1.98278C31.4128 0.701095 33.5206 0.712148 34.8139 2.00719L35.8675 3.06239C37.1609 4.3576 37.1497 6.44641 35.8429 7.72792L27.9158 15.5017Z" fill="#9F8EED"/>
<path d="M22.7394 15.0083L17.0024 9.26296L15.0706 7.32839L17.2003 5.23992C18.5071 3.95841 20.6149 3.96929 21.9083 5.26434L22.5521 5.9093L22.3156 6.14139C21.8255 6.6219 21.8214 7.40526 22.3062 7.89088C22.7913 8.3765 23.5816 8.38063 24.0718 7.90012L30.1305 1.95852C31.4237 0.690358 33.5095 0.70108 34.7893 1.98276C35.1261 2.32009 35.1232 2.86394 34.7829 3.19781L22.7394 15.0083Z" fill="#7766C6"/>
<path d="M19.8124 12.0771L18.0562 10.3183L22.552 5.9093C22.552 5.9093 21.3233 6.88219 22.3062 7.89088C23.0001 8.60282 23.9534 8.01608 23.9534 8.01608L19.8124 12.0771Z" fill="#29294A"/>
</g>
<defs>
<clipPath id="clip0_5_97">
<rect width="37" height="25" fill="white"/>
</clipPath>
</defs>
</svg>
